<?xml version="1.0" encoding="UTF-8" ?>
<!DOCTYPE svg PUBLIC "-//W3C//DTD SVG 1.1//EN" "http://www.w3.org/Graphics/SVG/1.1/DTD/svg11.dtd">
<svg width="200pt" height="194pt" viewBox="0 0 200 194" version="1.1" xmlns="http://www.w3.org/2000/svg">
<g id="#e6e6e9ff">
<path fill="#e6e6e9" opacity="1.00" d=" M 52.79 59.71 C 52.58 57.44 54.65 55.02 56.99 55.24 C 85.68 55.24 114.36 55.25 143.04 55.24 C 145.58 54.89 147.85 57.45 147.45 59.93 C 147.46 84.99 147.46 110.06 147.45 135.13 C 147.67 137.46 145.51 139.68 143.16 139.45 C 114.41 139.47 85.66 139.48 56.91 139.45 C 54.87 139.67 53.72 137.74 52.71 136.33 C 52.88 110.79 52.73 85.25 52.79 59.71 M 78.40 76.46 C 74.22 78.61 73.37 84.96 77.03 88.00 C 80.60 91.67 87.62 89.84 88.88 84.85 C 91.16 79.02 83.60 72.94 78.40 76.46 M 93.11 115.91 C 89.37 110.80 85.76 105.60 81.98 100.51 C 75.88 109.18 69.82 117.88 63.75 126.57 C 88.00 126.66 112.25 126.59 136.49 126.61 C 129.36 112.88 121.99 99.28 114.79 85.59 C 107.40 95.58 100.40 105.85 93.11 115.91 Z" />
</g>
<g id="#b5b5b6ff">
<path fill="#b5b5b6" opacity="1.00" d=" M 78.40 76.46 C 83.60 72.94 91.16 79.02 88.88 84.85 C 87.62 89.84 80.60 91.67 77.03 88.00 C 73.37 84.96 74.22 78.61 78.40 76.46 Z" />
<path fill="#b5b5b6" opacity="1.00" d=" M 93.11 115.91 C 100.40 105.85 107.40 95.58 114.79 85.59 C 121.99 99.28 129.36 112.88 136.49 126.61 C 112.25 126.59 88.00 126.66 63.75 126.57 C 69.82 117.88 75.88 109.18 81.98 100.51 C 85.76 105.60 89.37 110.80 93.11 115.91 Z" />
</g>
</svg>
