<?xml version="1.0" standalone="no"?><!DOCTYPE svg PUBLIC "-//W3C//DTD SVG 1.1//EN" "http://www.w3.org/Graphics/SVG/1.1/DTD/svg11.dtd"><svg t="1514857813633" class="icon" style="" viewBox="0 0 1024 1024" version="1.1" xmlns="http://www.w3.org/2000/svg" p-id="2750" xmlns:xlink="http://www.w3.org/1999/xlink" width="128" height="128"><defs><style type="text/css"></style></defs><path d="M436.447525 994.742857a34.464914 34.464914 0 0 1-33.938286-31.480686v-0.292571l-0.117029-64.804571h0.087772l-0.292572-150.966858c-0.087771-28.554971 9.947429-53.335771 31.626972-77.970285A1852278.491429 1852278.491429 0 0 0 851.986725 188.416L107.158382 581.924571l248.978285 79.082058-21.269942 65.009371-11.410286-3.510857-294.912-94.500572c-16.413257-5.3248-27.004343-18.314971-28.379429-34.816-1.696914-19.280457 9.801143-38.034286 30.076343-48.859428C60.873582 528.032914 925.948782 85.928229 955.527753 70.802286c1.755429-1.609143 4.593371-3.569371 9.0112-5.9392 5.383314-2.896457 13.663086-6.3488 22.674286-6.3488 5.090743 0 9.859657 1.053257 14.189714 3.130514 27.589486 13.165714 23.113143 37.975771 20.977372 49.912686l-0.643658 3.510857c-1.170286 7.021714-28.964571 147.338971-87.332571 441.197714l-21.240686 107.168914a86385.810286 86385.810286 0 0 0-35.547428 179.492572c-6.056229 31.919543-31.773257 54.242743-62.610286 54.242743-5.851429 0-11.819886-0.877714-17.642057-2.633143a55830.410971 55830.410971 0 0 1-288.885029-89.146514l-12.112457-3.949715 21.9136-65.477485 11.264 3.540114c2.574629 0.789943 250.499657 77.034057 281.424457 86.659657 7.5776-38.122057 96.343771-485.961143 124.635429-629.028571-81.832229 94.208-308.545829 355.035429-409.8048 471.508114l-46.109257 53.0432c-4.681143 5.5296-9.537829 18.256457-9.128229 29.140114 0.526629 14.482286 0.029257 203.776 0 211.821714V963.291429A34.6112 34.6112 0 0 1 436.418267 994.742857z" fill="#ffffff" p-id="2751"></path></svg>