<?xml version="1.0" standalone="no"?><!DOCTYPE svg PUBLIC "-//W3C//DTD SVG 1.1//EN" "http://www.w3.org/Graphics/SVG/1.1/DTD/svg11.dtd"><svg t="1515808313270" class="icon" style="" viewBox="0 0 1024 1024" version="1.1" xmlns="http://www.w3.org/2000/svg" p-id="1700" xmlns:xlink="http://www.w3.org/1999/xlink" width="128" height="128"><defs><style type="text/css"></style></defs><path d="M988.032 985.28c-8.832 8.704-22.912 8.704-31.616 0l-116.16-116.16c11.392-9.664 21.952-20.224 31.616-31.616l116.16 116.16C996.544 962.368 996.544 976.576 988.032 985.28L988.032 985.28zM651.648 894.4c-135.552 0-245.44-109.888-245.44-245.44 0-135.488 109.952-245.44 245.44-245.44 135.616 0 245.504 109.952 245.504 245.44C897.152 784.512 787.264 894.4 651.648 894.4L651.648 894.4zM651.648 448.128c-110.848 0-200.832 89.92-200.832 200.832s89.984 200.896 200.832 200.896c110.912 0 200.96-89.984 200.96-200.896S762.56 448.128 651.648 448.128L651.648 448.128zM495.488 648.96c0-7.552 0.64-14.976 1.728-22.272l176.768 0 0 44.544L497.28 671.232C496.128 664 495.488 656.576 495.488 648.96L495.488 648.96zM651.648 492.8c7.616 0 14.976 0.704 22.4 1.728l0 42.88L542.4 537.408C570.624 509.824 609.152 492.8 651.648 492.8L651.648 492.8zM183.04 671.232 183.04 626.688l179.648 0c-0.512 7.36-1.088 14.72-1.088 22.272 0 7.552 0.576 14.912 1.088 22.336L183.04 671.296 183.04 671.232zM383.936 537.408 183.04 537.408 183.04 492.8l224.448 0C398.464 506.88 390.4 521.728 383.936 537.408L383.936 537.408zM183.04 225.024l223.104 0 0 44.672L183.04 269.696 183.04 225.024 183.04 225.024zM406.144 403.52 183.04 403.52 183.04 358.848l223.104 0L406.144 403.52 406.144 403.52zM785.408 358.848 607.04 358.848c-49.344 0-89.344-40-89.344-89.216L517.696 68.8 116.096 68.8c-24.576 0-44.608 20.032-44.608 44.608l0 669.376c0 24.704 20.032 44.608 44.608 44.608l307.264 0c12.8 16.32 27.072 31.36 43.072 44.608L116.096 872c-49.28 0-89.216-40-89.216-89.28L26.88 113.408c0-49.28 40-89.28 89.216-89.28 0 0 171.456 0 334.656 0 4.032 0 8 0 12.032 0 7.808 0 15.296 0 22.976 0l62.464 0 275.328 296.64-1.344 7.872 7.936 7.872 0 10.24 0 56.704 0 17.152c-14.016-10.88-28.864-20.544-44.736-28.8L785.408 358.848 785.408 358.848zM562.432 105.856l0 163.776c0 24.576 19.968 44.608 44.608 44.608l150.72 0L562.432 105.856 562.432 105.856z" p-id="1701" fill="#ffffff"></path></svg>